<svg width="40" height="40" viewBox="0 0 40 40" fill="none" xmlns="http://www.w3.org/2000/svg">
<rect x="2" y="2" width="36" height="36" rx="4" fill="#F46A35"/>
<rect x="2" y="2" width="36" height="36" rx="4" fill="url(#paint0_linear)" fill-opacity="0.4"/>
<path fill-rule="evenodd" clip-rule="evenodd" d="M20.1078 7.02532C20.0377 7.00361 19.9623 7.00361 19.8922 7.02532L8.3422 10.6126C8.2719 10.6342 8.21056 10.6765 8.16703 10.7336C8.12351 10.7907 8.10003 10.8595 8.1 10.9302V17.6612C8.1 24.9791 12.692 30.3687 19.902 32.9724C19.9652 32.995 20.0348 32.995 20.098 32.9724C27.308 30.3687 31.9 24.9791 31.9 17.6612V10.9288C31.8997 10.8582 31.8762 10.7895 31.8327 10.7325C31.7892 10.6754 31.728 10.633 31.6578 10.6113L20.1078 7.02532V7.02532ZM19.244 5.11444C19.7354 4.96185 20.2646 4.96185 20.756 5.11444L32.306 8.69903C32.7982 8.85186 33.2272 9.14992 33.5315 9.55049C33.8358 9.95106 33.9998 10.4336 34 10.9288V17.6612C34 25.956 28.722 32.0062 20.8386 34.8538C20.2981 35.0487 19.7019 35.0487 19.1614 34.8538C11.2794 32.0049 6 25.956 6 17.6612V10.9288C6 9.91042 6.686 9.01259 7.694 8.69903L19.244 5.11444V5.11444ZM21.4 19.9821C21.9338 19.6871 22.3509 19.2318 22.5868 18.6867C22.8226 18.1417 22.864 17.5374 22.7045 16.9675C22.5449 16.3977 22.1934 15.8941 21.7045 15.535C21.2155 15.1758 20.6164 14.9811 20 14.9811C19.3836 14.9811 18.7845 15.1758 18.2955 15.535C17.8066 15.8941 17.4551 16.3977 17.2955 16.9675C17.136 17.5374 17.1774 18.1417 17.4132 18.6867C17.6491 19.2318 18.0662 19.6871 18.6 19.9821V23.6913C18.6 24.0467 18.7475 24.3876 19.0101 24.6389C19.2726 24.8902 19.6287 25.0314 20 25.0314C20.3713 25.0314 20.7274 24.8902 20.9899 24.6389C21.2525 24.3876 21.4 24.0467 21.4 23.6913V19.9821Z" fill="black"/>
<path fill-rule="evenodd" clip-rule="evenodd" d="M20.1078 7.02532C20.0377 7.00361 19.9623 7.00361 19.8922 7.02532L8.3422 10.6126C8.2719 10.6342 8.21056 10.6765 8.16703 10.7336C8.12351 10.7907 8.10003 10.8595 8.1 10.9302V17.6612C8.1 24.9791 12.692 30.3687 19.902 32.9724C19.9652 32.995 20.0348 32.995 20.098 32.9724C27.308 30.3687 31.9 24.9791 31.9 17.6612V10.9288C31.8997 10.8582 31.8762 10.7895 31.8327 10.7325C31.7892 10.6754 31.728 10.633 31.6578 10.6113L20.1078 7.02532V7.02532ZM19.244 5.11444C19.7354 4.96185 20.2646 4.96185 20.756 5.11444L32.306 8.69903C32.7982 8.85186 33.2272 9.14992 33.5315 9.55049C33.8358 9.95106 33.9998 10.4336 34 10.9288V17.6612C34 25.956 28.722 32.0062 20.8386 34.8538C20.2981 35.0487 19.7019 35.0487 19.1614 34.8538C11.2794 32.0049 6 25.956 6 17.6612V10.9288C6 9.91042 6.686 9.01259 7.694 8.69903L19.244 5.11444V5.11444ZM21.4 19.9821C21.9338 19.6871 22.3509 19.2318 22.5868 18.6867C22.8226 18.1417 22.864 17.5374 22.7045 16.9675C22.5449 16.3977 22.1934 15.8941 21.7045 15.535C21.2155 15.1758 20.6164 14.9811 20 14.9811C19.3836 14.9811 18.7845 15.1758 18.2955 15.535C17.8066 15.8941 17.4551 16.3977 17.2955 16.9675C17.136 17.5374 17.1774 18.1417 17.4132 18.6867C17.6491 19.2318 18.0662 19.6871 18.6 19.9821V23.6913C18.6 24.0467 18.7475 24.3876 19.0101 24.6389C19.2726 24.8902 19.6287 25.0314 20 25.0314C20.3713 25.0314 20.7274 24.8902 20.9899 24.6389C21.2525 24.3876 21.4 24.0467 21.4 23.6913V19.9821Z" fill="url(#paint1_linear)" fill-opacity="0.4"/>
<defs>
<linearGradient id="paint0_linear" x1="39" y1="38.5" x2="16.5" y2="19.5" gradientUnits="userSpaceOnUse">
<stop stop-color="white"/>
<stop offset="0.604167" stop-color="white" stop-opacity="0.619792"/>
<stop offset="1" stop-color="white" stop-opacity="0"/>
</linearGradient>
<linearGradient id="paint1_linear" x1="31.5" y1="30.5" x2="18" y2="17.5" gradientUnits="userSpaceOnUse">
<stop stop-color="white"/>
<stop offset="1" stop-color="white" stop-opacity="0"/>
</linearGradient>
</defs>
</svg>
